<?xml version="1.0" encoding="UTF-8"?>
<svg version="1.1" viewBox="0 0 2048 1151" width="1280" height="1280" xmlns="http://www.w3.org/2000/svg">
<path transform="translate(0)" d="m0 0h2048v1151h-2048z" fill="#FDFDFD"/>
<path transform="translate(1e3 205)" d="m0 0h42l30 3 28 5 24 6 27 9 26 11 22 11 20 12 16 11 17 13 14 12 13 12 13 13 9 11 12 14 13 18 12 19 13 24 11 24 3 10-7-6-17-17-11-9-18-14-20-13-23-13-27-13-28-11-30-10-40-10-26-5-39-5-28-2h-61l-37 3-41 6-40 9-27 8-26 9-28 12-30 15-21 13-18 13-10 8-14 12-21 21 1-5 10-23 11-22 14-23 12-17 11-14 11-13 12-13 10-10 8-7 14-12 20-15 19-12 21-12 25-12 24-9 29-9 28-6 29-4z" fill="#F17A29"/>
<path transform="translate(678,693)" d="m0 0 21 21 11 9 8 7 18 13 14 9 21 12 15 8 28 12 27 10 34 10 36 8 30 5 39 4 21 1h42l32-2 28-3 36-6 30-7 28-8 26-9 26-11 21-10 23-13 21-14 13-10 11-9 13-12 12-12 2-3 2 1-11 25-13 26-13 21-12 17-11 14-13 15-12 13-17 16-11 9-18 14-17 11-15 9-23 12-20 9-25 9-24 7-28 6-22 3-28 2h-24l-28-2-27-4-27-6-26-8-24-9-29-14-18-10-21-14-16-12-13-11-10-9-12-11-7-8-7-7-9-11-12-16-14-21-9-15-12-23-10-23z" fill="#F17A29"/>
<path transform="translate(740,910)" d="m0 0h18l16 4 14 7 13 11 9 13 6 14 2 9v23l-3 12-8 16-10 12-12 9-16 7-15 3h-10l-15-3-15-6-11-8-9-9-7-11-5-11-3-12v-20l4-15 7-14 9-11 11-9 14-7z" fill="#9FA0A0"/>
<path transform="translate(919,507)" d="m0 0h17l13 4 10 6 9 9 6 10 5 16 1 6v21l-4 17-7 14-9 10-10 7-15 5-14 1-14-3-10-6-6-5-2-3-1 60-1 3h-21l-1-169h20l1 16 1 2 6-8 8-6 10-5z" fill="#525152"/>
<path transform="translate(1282,128)" d="m0 0h19l13 4 11 6 11 11 7 12 4 16v13l-4 15-6 11-9 10-11 7-9 4-8 2h-17l-13-4-11-6-10-9-7-10-4-9-2-8v-19l4-13 5-9 9-10 7-6 13-6z" fill="#787879"/>
<path transform="translate(1270,507)" d="m0 0h8l14 3 10 5 8 7 7 11 5 15 1 6v20l-84 1 2 13 6 12 7 7 12 6 4 1h20l15-3 9-2 3 16-9 4-20 4h-22l-12-3-14-7-10-9-7-11-4-9-2-9v-21l3-15 5-12 6-10 9-9 12-7 10-3z" fill="#525152"/>
<path transform="translate(995,509)" d="m0 0h24l5 12 16 43 9 25 4 13 3-8 17-51 11-32 1-1h23l-3 10-19 49-16 41-12 27-9 16-10 13-9 8-10 6-10 4-4-1-5-17 17-9 10-9 7-10 5-11-1-7-13-32-15-37-16-40z" fill="#525152"/>
<path transform="translate(803,509)" d="m0 0h22v121h-19l-1-1v-17l-12 12-14 7-10 2h-8l-10-2-12-6-7-7-6-12-3-13v-83h22l1 75 4 16 7 8 7 3h16l12-6 6-8 3-7 1-6z" fill="#525152"/>
<path transform="translate(917,525)" d="m0 0h14l12 6 8 9 5 11 2 9v19l-3 12-5 10-6 7-12 6-4 1h-13l-11-4-10-9-5-10-1-4v-33l4-11 6-8 7-6 8-4z" fill="#FEFEFE"/>
<path transform="translate(686,215)" d="m0 0h13l10 3 10 6 8 9 4 8 2 6v16l-4 11-6 9-10 8-10 4-4 1h-12l-10-3-10-6-7-7-6-12-2-8v-8l3-12 6-10 7-7 8-5z" fill="#666"/>
<path transform="translate(1161,476)" d="m0 0h6v34h31v16h-31l1 74 3 8 1 3 6 2h18l1 16-9 3h-19l-10-4-7-6-5-10-2-7v-79h-19v-16h19v-30z" fill="#525152"/>
<path transform="translate(660,509)" d="m0 0h22l1 120-3 16-5 12-7 10-8 6-11 5-14 3-5-1-2-11v-5l13-3 10-6 5-8 2-9 1-9z" fill="#525152"/>
<path transform="translate(1412,506)" d="m0 0h3v21l-17 3-10 6-6 9-3 10-1 11-1 63-2 1h-18l-1-1v-119h19l1 22 5-10 6-7 10-6 7-2z" fill="#504F50"/>
<path transform="translate(1268,522)" d="m0 0h11l10 4 8 7 5 10 1 3v11h-64l1-10 5-10 5-6 11-7z" fill="#FEFEFE"/>
</svg>
